<svg xmlns="http://www.w3.org/2000/svg" viewBox="1253.73 2040.38 77.80 77.80"><circle cx="1292.63" cy="2079.28" r="38.90" fill="#161616"/><g fill="#cdd6e2"><path transform="matrix(1 0 0 1 0 0)" d="M1284.86,2117.15c-1.16-.28-2.28-.91-2.45-2.03-.34-2.19-.19-4.35-.16-6.56l.05-3.39-.06-8.48-.04-17.13c0-3.27,1.42-6.13,3.84-8.22,1.21-1.05,2.03-2.35,2.12-3.97l.3-5.29.13-5.19c-.37-.14-.71-.4-.71-.75v-2c0-.57.47-.9,1.02-.95-.04-1.17-.45-2.46.53-2.78,1.43-.47,2.87-.4,4.35-.28.58.05,1.31.13,1.57.72.28.64,0,1.49.1,2.15.32.19,1,.3,1,.84v2.31c-.02.34-.43.61-.64.83l.21,7.58.17,2.49c.13,1.89,1,3.3,2.32,4.51,2.5,2.31,3.65,5.41,3.61,8.78l-.16,15.6.14,17.76c.02,2.04-.58,3.06-2.75,3.54-4.77,1.07-9.65,1.09-14.47-.09ZM1294.08,2051.01c-1.43-.36-2.75-.24-4.06.08,1.4.2,2.67.35,4.06-.08ZM1293.21,2053.71l1.32-.39c.05-.58.04-1.05-.04-1.59-1.38.4-2.58.29-3.85.39.28.33.65.17.99.1-.03.28-.27.44-.42.47s-.34-.08-.48-.14l-.03.93c.85.03,1.65.04,2.39.33.03-.03.05-.07.12-.09ZM1290.06,2051.99c-.06-.19-.34-.08-.3.06.14.5-.22,1.25.35,1.39.07-.48.1-.97-.05-1.45ZM1293.24,2053.83l-.08.05c-.91.65-3.05.58-4.38.09.34,1.3-.28,2.23.77,2.3-.13-.51-.19-.99-.06-1.49.07-.26.64-.11.59.07-.14.45-.17.74-.06,1.05.38.99,3.63.82,5.37.13l.05-2.15c-.89.39-1.63.43-2.21-.06ZM1283.16,2083.2c-.33-.86-.03-1.75-.17-2.6-.06,0-.13.05-.13.12l.04,3.73c.31-.44-.11-1.06.33-1.22l.14,13.64.19,16.95c.02,1.53,1.2,2.06,2.88,2.43,4.07.88,8.21.78,12.28-.09,1.25-.27,2.2-1.15,2.21-2.51l.09-19.18-.1-14.29c-.04-6.03-3.91-7.89-5.1-10.13-.66-1.25-.7-2.66-.77-4.07l-.45-8.83c-.36.84-.08,1.69-.55,2.4-.22-1.13-.42-1.73.24-2.21l-2.95.28c.08.44.33.43.69.53-1.06.52-.39,1.35-.96,1.84-.2-.51-.06-.95-.13-1.43-.14-.03-.26-.02-.35.02l-.31,5.39-.33-5.07c-.01-.23-.15-.46-.36-.38l-.09,2.77-.25,5.61c-.1,2.27-1.12,4.18-2.86,5.56l-.58.83c-2.68,3-2.49,5.97-2.66,9.89ZM1288.33,2069.43c.29-.44.6-1.02.6-1.58l-.03-6.09-.13,2.83c-.03.77-.2,1.54-.13,2.33.09.9-.11,1.62-.32,2.52ZM1301.26,2098.81c.04.09.13.1.16,0l.27-2.31.03-2.92c-.05,0-.1.02-.13.08l-.05,2.38-.29,2.76Z"/><path transform="matrix(1 0 0 1 0 0)" d="M1299.61,2107.38v-2.66s.23-14.54.23-14.54l.07-5c-1.53.45-2.92.61-4.42.73-3.67.31-7.26.21-10.99-.58v4.5c0,1.38.05,2.71-.31,4.11-.23-2.24-.48-8.75-.11-9.21.09-.11.27-.17.48-.15l3.89.46c4,.19,7.92-.05,11.97-.64l-.03,11.67-.04,11.87c-1.44.67-2.96.81-4.54.94-2.43.2-4.75.19-7.17,0-1.64-.13-3.21-.29-4.71-.93l.07-7.21c0-.49-.12-1.11.37-1.45l.28,8.13,3.08.47c4,.34,7.94.12,11.87-.54Z"/><path transform="matrix(1 0 0 1 0 0)" d="M1292.45,2096.86c.31.79.48,1.52-.3,2.28-.68-.56-.66-1.37-.36-2.31-.38.55-.84.99-1.47.72-.23-.1-.29-.42-.23-.58.17-.44,1.02-.06,1.06-.6.08-.97-.41-1.98-1.29-2.39-.6-.29-1.29-.04-1.46.56-.05.19.05.39.15.48.23.21.88-.24,1.03.22.07.21-.08.44-.3.56-.54.29-1.05.09-1.41-.28s-.46-.95-.19-1.5c.51-1.03,1.86-1.23,2.78-.53.77.58,1.19,1.44,1.34,2.43.22.05.47.05.68-.02.18-1.22.78-2.36,1.93-2.75.77-.26,1.54-.03,1.96.57s.38,1.47-.28,2.02c-.25.21-.52.24-.82.21-.25-.02-.65-.28-.59-.62.08-.48.57-.18.75-.22.4-.1.37-.65.22-.83-.24-.28-.51-.47-.95-.4-1.24.22-1.95,1.9-1.33,2.86.26.08.88.02.83.43s-.47.52-.79.48c-.44-.06-.51-.37-.97-.81Z"/><path transform="matrix(1 0 0 1 0 0)" d="M1292.18,2091.27c-.11.11-.27.38-.26.6l.09,2.84-.9-1.72c-.39-.74-.37-1.62.09-2.32l.97-1.48.84,1.28c.52.79.57,1.78.14,2.63l-.88,1.78-.08-3.62Z"/><path transform="matrix(1 0 0 1 0 0)" d="M1285.99,2112.53l.25,2.14c1.12.41,2.24.41,3.27,1.05-1.57.19-2.97-.24-4.36-.71-.52-.18-.88-.77-.88-1.31l-.02-4.49c0-.15.18-.34.27-.35.1,0,.26.14.27.33l.2,4.27c.02.44.23.84.64.88-.11-1-.16-1.9-.02-2.88.48.2.34.64.39,1.07Z"/><path transform="matrix(1 0 0 1 0 0)" d="M1284.46,2082.96v-1.99c0-.44.04-.72.02-1.14-.08-2.02.7-3.91,1.89-5.51l2.41-2.59c.35.53,0,.84-.25,1.16l-2.27,3.04c-1.08,1.96-1.45,4.18-1.54,6.42,0,.18-.04.33-.27.61Z"/><path transform="matrix(1 0 0 1 0 0)" d="M1299.63,2080.36l-.58-2.81-.57-1.59c-.43-1.19-1.65-1.9-1.9-3.31,2.95,2.05,4,5.77,3.56,9.1-.35-.52-.07-.95-.17-1.55-.01-.08-.27-.27-.33.17Z"/><path transform="matrix(1 0 0 1 0 0)" d="M1300.11,2113.95c-.11,1.05-1.85,1.7-2.47,1.21.98-.21,1.68-.74,1.8-1.74l.45-3.77c.52,1.44.37,2.92.22,4.3Z"/><path transform="matrix(1 0 0 1 0 0)" d="M1289.25,2070.37c.54-1.21.62-2.42.75-3.69l.28-1.21c.5,1.67.45,3.54-.49,5.07l-.2.22c-.05.05-.18.09-.24.05-.09-.07-.16-.29-.1-.43Z"/><path transform="matrix(1 0 0 1 0 0)" d="M1291.02,2101.58c.23.02.32.25.27.34-.07.14-.26.23-.49.22l-3.35-.19c-.18,0-.31-.24-.29-.34s.21-.32.39-.31l3.47.27Z"/><path transform="matrix(1 0 0 1 0 0)" d="M1285.59,2083.67c-.43-1.04-.19-2.32-.12-3.52.02-.27.24-.54.56-.57-.16,1.3.04,2.58-.44,4.09Z"/><path transform="matrix(1 0 0 1 0 0)" d="M1297.04,2101.81c-1.28.15-2.47.29-3.68.18-.08,0-.07-.34.08-.36l3.14-.34c.22-.02.5.14.46.52Z"/><path transform="matrix(1 0 0 1 0 0)" d="M1291.51,2101.87c-.02-.29.44-.71.7-.72.39-.03.76.36.77.64.01.34-.27.72-.56.8-.34.09-.87-.19-.9-.72Z"/><path transform="matrix(1 0 0 1 0 0)" d="M1292,2103.46c.33-.2.64.02.81.26.22.33.1.68-.25.89-.28.17-.68.12-.88-.25-.14-.25-.02-.68.32-.89Z"/><path transform="matrix(1 0 0 1 0 0)" d="M1290.75,2104.36l-1.54-.11c-.19-.01-.24-.17-.22-.27.02-.13.11-.22.29-.22l1.49.03c.18,0,.28.07.31.2.03.15-.03.39-.34.37Z"/><path transform="matrix(1 0 0 1 0 0)" d="M1295.49,2103.92c-.51.57-1.47.48-2.1.26-.22-.48,1.1-.73,2.1-.26Z"/><path transform="matrix(1 0 0 1 0 0)" d="M1286.51,2077.02c.04,1.67-.71,2.77-.77,2.02s.14-1.57.77-2.02Z"/><path transform="matrix(1 0 0 1 0 0)" d="M1287.72,2075.09l-1.02,1.43c.18-2.09,1.46-2.03,1.02-1.43Z"/><path transform="matrix(1 0 0 1 0 0)" d="M1285.56,2111.06l-.04-1.89c0-.13.16-.28.3-.29v2.11c-.07.11-.2.1-.26.07Z"/><path transform="matrix(1 0 0 1 0 0)" d="M1284.15,2099.06l-.03-3.98c.03-.06.09-.08.13-.08l.03,3.98c-.03.06-.09.08-.13.08Z"/><path transform="matrix(1 0 0 1 0 0)" d="M1295.37,2115.65c-.68.37-1.33.28-2.06.18.66-.31,1.36-.33,2.06-.18Z"/></g></svg>