<svg xmlns="http://www.w3.org/2000/svg" viewBox="582.99 2040.00 77.80 77.80"><circle cx="621.89" cy="2078.90" r="38.90" fill="#161616"/><g fill="#cdd6e2"><path transform="matrix(1 0 0 1 0 0)" d="M640.43,2093.13c-.53.01-.81.38-.75.9-2.22,2.55-4.93,4.59-8.08,5.97-6,2.62-11.51,2.87-17.71.72-5.9-2.05-10.77-6.32-13.38-11.98-5.5-11.94-.27-25.85,11.94-31.01,2.27-.96,4.59-1.49,7.09-1.86s4.96-.31,7.47.27c2.86.66,5.62,1.52,8.07,3.21,6.62,4.54,10.54,12.03,10.39,20.04-.04,2.08-.33,4.08-.99,5.99-.14.42-.45.66-.54,1.2-.06.38-.33.87-.47,1.29-.66,1.94-1.76,3.59-3.04,5.26ZM644.34,2079.46c.15-4.9-1.44-9.54-4.16-13.53-1.49-2.18-3.29-3.88-5.28-5.53-.68-.56-1.14-.78-1.92-1.13-3.1-1.37-6.21-2.36-9.65-2.54-6.65-.34-13.23,2.29-17.85,7.11-4.07,4.25-6.25,9.88-6.06,15.75.1,3.24.88,6.38,2.32,9.19,5.5,10.7,18.56,15.12,29.45,10.19,7.74-3.5,12.88-10.9,13.15-19.52Z"/><path transform="matrix(1 0 0 1 0 0)" d="M636.92,2076.45c-1.78-6.76-6.06-10.51-12.55-12.14.55-.18.99,0,1.45.05-.01-.13-.01-.2.01-.25.04-.08.2-.12.4-.08,5.75,1.18,10.42,5.85,11.28,11.85l-1.13-2.85.67,3.35c.41.25-.31.55-.13.08Z"/><path transform="matrix(1 0 0 1 0 0)" d="M622.8,2085.64c.21-1.31-1.05-2.56-.8-3.82,1.61,1.98,2.38,4.01.93,6.18l-1.15,1.72-1.59-2.3c-.72-1.04-.52-2.5.04-3.63l1.33-2.03c.27,1.33-1.23,2.68-.73,4.09.31-.83.19-1.58.68-2.27.12,1.47-.15,2.71.23,4.09l.24-4.2c.39.74.54,1.46.82,2.17Z"/><path transform="matrix(1 0 0 1 0 0)" d="M611.9,2068.04c-2.54,1.89-3.97,4.83-4.86,7.79l.11-1.63-.8,2.95c-.26-1.95.37-3.68,1.26-5.42,1.84-3.64,5.24-6.36,9.15-7.51.57-.17,1.03-.09,1.55-.09h1.37s-2.05.65-2.05.65c-1.08.57-2.49.74-3.43,1.57-.74.66-1.53,1.08-2.32,1.67Z"/><path transform="matrix(1 0 0 1 0 0)" d="M628.12,2080.19c-.67-.28-1.31-.28-1.95-.7l3.58-.29c-1.25-.24-2.45-.13-3.73-.15l1.89-.94c-1.39-.22-2.51,1.09-3.73.98,1.43-1.6,3.97-2.45,5.49-1.3l1.94,1.47-1.77,1.22c-1.9,1.3-4.06.65-5.68-1.01.53-.12.92.05,1.33.23.83.31,1.62.76,2.63.5Z"/><path transform="matrix(1 0 0 1 0 0)" d="M621.76,2071.19c-.42,1.05-.12,2-.29,3.14l-.76-1.7c-.43,1.58.86,2.88.81,4.3-1.79-1.96-2.39-4.41-.73-6.43l1.03-1.52c.35.57.57,1,.92,1.45,1.58,2,.89,4.51-.74,6.46-.29-1.35,1.07-2.68.81-4.19-.24.77-.42,1.48-.83,2.22l-.22-3.74Z"/><path transform="matrix(1 0 0 1 0 0)" d="M628.41,2093.37c-.83-.02-1.34.3-2.13.23,2.56-.85,4.57-2.28,6.46-4.16,2.76-2.74,4.26-6.75,4.64-10.64.21,1.56-.19,3.1-.36,4.75.25-.35.12-.95.64-1.12-1.06,4.99-4.53,9.1-9.26,10.94Z"/><path transform="matrix(1 0 0 1 0 0)" d="M607.28,2083.93c1.6,4.85,5.67,8.26,10.6,9.85-.44-.02-1.07.18-1.53.05-4.71-1.32-8.39-4.95-9.81-9.61l-.36-2.1c.58.32.48.89.62,1.35l.12.38c.03.08.15.1.35.09Z"/><path transform="matrix(1 0 0 1 0 0)" d="M614.55,2079.9c2.38,1.29,3.3-.81,4.77-.35l-1.62,1.08c-1.31.87-2.92.71-4.17-.25-.51-.4-1.04-.66-1.64-1.08l1.43-1.05c2.23-1.64,3.84-1.03,5.9.82-1.16.16-2.37-1.19-3.46-.98-.92.18-1.62.72-2.45,1.15l1.23.67Z"/><path transform="matrix(1 0 0 1 0 0)" d="M611.62,2097.52c-4.96-2.06-8.78-6.67-10.15-11.93,2.18,5.04,5.44,8.92,10.15,11.93Z"/><path transform="matrix(1 0 0 1 0 0)" d="M621.87,2059.68l-.1,2.1-.76-1.33c-.54-.96,0-2.28.9-2.91,1.33,1.44,1.19,2.59.1,4.13-.04-.73.07-1.3-.14-1.99Z"/><path transform="matrix(1 0 0 1 0 0)" d="M632.96,2060.67c3.3,1.49,6.93,5.23,8.17,8.76l-1.68-2.33c-2.21-3.08-5.02-5.54-8.42-7.21.79-.09,1.29.5,1.93.79Z"/><path transform="matrix(1 0 0 1 0 0)" d="M635.1,2095.71l3.23-3.55c2.13-2.42,3.38-5.2,4.48-8.19-.85,4.72-3.75,8.95-7.7,11.75Z"/><path transform="matrix(1 0 0 1 0 0)" d="M622,2096.26c1.13,1.55,1.31,2.57-.05,4.05-.53-.53-1.02-1.15-1.06-1.89-.05-.83.47-1.52.86-2.17l.12,2.04c.24-.65.11-1.27.14-2.03Z"/><path transform="matrix(1 0 0 1 0 0)" d="M603.87,2079.33l-1.59.77c-.82.19-1.64-.32-2.16-.95.96-1.3,2.54-1.18,3.64-.17l-1.62.06c.57.31,1,.16,1.72.3Z"/><path transform="matrix(1 0 0 1 0 0)" d="M640.05,2079.14c.64.08,1.19.21,1.84-.1l-1.7-.1c1.41-.97,2.43-1.21,3.57.09-.47.8-1.5,1.29-2.4.9-.47-.2-.9-.38-1.32-.79Z"/><path transform="matrix(1 0 0 1 0 0)" d="M621.34,2078.28c.67-.24,1.29.18,1.47.68.23.64-.12,1.26-.7,1.48s-1.18-.05-1.44-.57c-.28-.56-.03-1.34.67-1.59Z"/><path transform="matrix(1 0 0 1 0 0)" d="M615.9,2058.84c-3.7,1.12-6.83,3.24-9.79,5.85,2-2.74,4.96-4.46,8.11-5.6.56-.2,1.05-.49,1.68-.26Z"/><path transform="matrix(1 0 0 1 0 0)" d="M618.53,2083.05c-.27.4-.26.92-.58,1.13-.35.22-.94.41-1.29.09s-.25-.87-.01-1.23c.2-.3.6-.49,1.06-.59.78-.17,1.23-.89,2.08-1.25l-1.26,1.86Z"/><path transform="matrix(1 0 0 1 0 0)" d="M626.79,2084.19c-.33.4-.89.26-1.22.08-.4-.22-.4-.67-.55-1.12l-1.41-1.98,2.01,1.27c.38.24.9.11,1.14.49.19.31.35.86.03,1.25Z"/><path transform="matrix(1 0 0 1 0 0)" d="M625.54,2076.13c-.73.3-1.16,1.12-1.96,1.37.2-.89,1.09-1.25,1.46-1.89.08-.43.03-.94.36-1.2.39-.31.95-.47,1.36-.07.32.31.2.85.03,1.16-.25.44-.72.42-1.25.64Z"/><path transform="matrix(1 0 0 1 0 0)" d="M619.84,2077.46c-.71-.18-1.09-.82-1.66-1.23-.38-.28-1.24-.11-1.59-.81-.18-.36-.26-.85.09-1.15.43-.36,1.39-.16,1.53.37l.31,1.22c.44.51,1.04.78,1.32,1.59Z"/><path transform="matrix(1 0 0 1 0 0)" d="M624.75,2061.46c-.79,0-1.22.04-1.86.75-.14-.96.52-1.91,1.44-2.14.48-.12.87.02,1.06.37s-.11,1.02-.64,1.02Z"/><path transform="matrix(1 0 0 1 0 0)" d="M604.26,2078.07c-.29.31-.6.01-.9-.1-.89-.32-1.4-1.19-1.05-2.09.11-.28.48-.44.69-.38.95.25.14,1.56,1.26,2.56Z"/><path transform="matrix(1 0 0 1 0 0)" d="M639.76,2078.13c1.25-1.17.38-2.43,1.31-2.62.28-.06.64.13.74.5.23.82-.3,1.66-1.11,1.93-.27.13-.48.39-.94.19Z"/><path transform="matrix(1 0 0 1 0 0)" d="M620.93,2062.17c-.66-.53-1.09-.77-1.84-.73-.4.02-.71-.51-.65-.79.08-.38.49-.65.96-.58.98.14,1.53,1.05,1.54,2.1Z"/><path transform="matrix(1 0 0 1 0 0)" d="M625.4,2097.25c-.11.41-.54.6-.84.64-.81.11-1.65-.8-1.72-1.98,1.17,1.03,1.84.42,2.24.67.15.09.41.33.31.67Z"/><path transform="matrix(1 0 0 1 0 0)" d="M604.23,2080.1c-.98.99-.44,2.87-1.48,2.53-.37-.12-.58-.48-.55-.93.07-1.03,1.03-1.55,2.02-1.6Z"/><path transform="matrix(1 0 0 1 0 0)" d="M641.47,2082.43c-.28.26-.56.08-.7-.02-.6-.43.02-1.28-.96-2.31.52-.05,1,.12,1.43.41.61.42.83,1.36.23,1.92Z"/><path transform="matrix(1 0 0 1 0 0)" d="M619.32,2097.87c-.53.05-.83-.26-.87-.6-.12-.99,1.27-.42,2.42-1.32.08.86-.53,1.83-1.55,1.92Z"/><path transform="matrix(1 0 0 1 0 0)" d="M621.56,2062.58c.26-.17.64-.08.81.22.11.2.04.59-.28.81-.2.14-.51.16-.74-.23-.13-.22-.15-.57.21-.81Z"/><path transform="matrix(1 0 0 1 0 0)" d="M603.34,2068.62l-1.31,2.46c.37-1.54,1.16-2.8,2.1-4.01.01.66-.55,1-.8,1.55Z"/><path transform="matrix(1 0 0 1 0 0)" d="M632.88,2097.21c-1.26.75-2.43,1.34-3.8,1.66l3.47-1.74c.11-.16.36-.12.34.08Z"/><path transform="matrix(1 0 0 1 0 0)" d="M604.97,2078.58c.3-.05.6.22.63.47.03.29-.19.56-.47.63-.27.07-.55-.09-.63-.36-.1-.32.08-.68.47-.74Z"/><path transform="matrix(1 0 0 1 0 0)" d="M621.81,2094.55c.34-.09.58.27.6.48.02.29-.17.58-.41.64-.32.07-.57-.13-.63-.39-.06-.25.09-.62.45-.72Z"/><path transform="matrix(1 0 0 1 0 0)" d="M638.89,2078.58c.31-.09.58.14.63.37.06.29-.14.55-.34.62-.28.1-.58-.01-.72-.31-.11-.23.09-.59.43-.69Z"/><path transform="matrix(1 0 0 1 0 0)" d="M615.77,2085.27c-.04.39-.29.48-.46.52-.29.06-.53-.13-.56-.36-.04-.28.12-.53.42-.63.16-.05.32-.04.43,0s.2.21.18.46Z"/><path transform="matrix(1 0 0 1 0 0)" d="M627.65,2084.79c.23-.21.56-.1.7.14.09.15.15.43-.03.63-.16.19-.46.19-.69-.02-.16-.15-.26-.47.02-.74Z"/><path transform="matrix(1 0 0 1 0 0)" d="M615.57,2073.56c-.17.17-.47.09-.59.02-.13-.07-.31-.28-.25-.49.09-.33.43-.35.65-.23s.43.45.19.7Z"/><path transform="matrix(1 0 0 1 0 0)" d="M628.34,2073.73c-.22.22-.45.2-.58.13-.25-.13-.23-.45-.02-.66.18-.18.44-.27.64-.1.14.12.2.4-.03.63Z"/></g></svg>